<svg xmlns="http://www.w3.org/2000/svg" aria-labelledby="1p6xjcd-aria" role="img" viewBox="0 0 1366 277.375"><title id="1p6xjcd-aria">Loading...</title><rect role="presentation" x="0" y="0" width="100%" height="100%" clip-path="url(#1p6xjcd-diff)" style="fill: url(&quot;#1p6xjcd-animated-diff&quot;);"/><defs><clipPath id="1p6xjcd-diff"><rect rx="0" ry="0" width="140" height="24"/><rect x="0" y="44" rx="4" ry="4" width="219.33333333333334" height="123.375"/><rect x="0" y="177.375" rx="0" ry="0" width="219.33333333333334" height="20"/><rect x="0" y="207.375" rx="0" ry="0" width="131.6" height="20"/><rect x="229.33333333333334" y="44" rx="4" ry="4" width="219.33333333333334" height="123.375"/><rect x="229.33333333333334" y="177.375" rx="0" ry="0" width="219.33333333333334" height="20"/><rect x="229.33333333333334" y="207.375" rx="0" ry="0" width="131.6" height="20"/><rect x="458.6666666666667" y="44" rx="4" ry="4" width="219.33333333333334" height="123.375"/><rect x="458.6666666666667" y="177.375" rx="0" ry="0" width="219.33333333333334" height="20"/><rect x="458.6666666666667" y="207.375" rx="0" ry="0" width="131.6" height="20"/><rect x="688" y="44" rx="4" ry="4" width="219.33333333333334" height="123.375"/><rect x="688" y="177.375" rx="0" ry="0" width="219.33333333333334" height="20"/><rect x="688" y="207.375" rx="0" ry="0" width="131.6" height="20"/><rect x="917.3333333333334" y="44" rx="4" ry="4" width="219.33333333333334" height="123.375"/><rect x="917.3333333333334" y="177.375" rx="0" ry="0" width="219.33333333333334" height="20"/><rect x="917.3333333333334" y="207.375" rx="0" ry="0" width="131.6" height="20"/><rect x="1146.6666666666667" y="44" rx="4" ry="4" width="219.33333333333334" height="123.375"/><rect x="1146.6666666666667" y="177.375" rx="0" ry="0" width="219.33333333333334" height="20"/><rect x="1146.6666666666667" y="207.375" rx="0" ry="0" width="131.6" height="20"/></clipPath><linearGradient id="1p6xjcd-animated-diff"><stop offset="0%" stop-color="#ffffff13" stop-opacity="1"/><stop offset="50%" stop-color="#ffffff13" stop-opacity="1"/><stop offset="100%" stop-color="#ffffff13" stop-opacity="1"/></linearGradient></defs></svg>