<svg xmlns="http://www.w3.org/2000/svg" width="240" height="58.85" viewBox="0 0 240 58.85">
    <defs>
        <clipPath id="a">
            <path d="M0 0h240v58.85H0z"/>
        </clipPath>
    </defs>
    <g style="opacity:.25">
        <g style="clip-path:url(#a)">
            <path d="m157.246 33.166 11.691 23.585H187.1V1.418h-17.386v23.033a1.542 1.542 0 0 1-2.923.685L155.044 1.418h-18.162v55.333h17.44v-22.9a1.542 1.542 0 0 1 2.924-.683"/>
            <path d="M109.975 1.417h19.071v55.335h-19.071z"/>
            <path d="M192.732 23.849v10.2c0 9.921 3.741 17.092 11.12 21.314 11.774 6.736 28.721 2.578 36.15-2.916V26.7h-17.227v16.19l-.328.128c-1.655.643-5.557 1.34-8.457-.644-2.236-1.528-3.368-4.267-3.368-8.137v-11.41c0-3.588 1.6-5.9 4.614-6.69 3.211-.828 6.314.955 7.588 4.3l16.682-8.93C234.225 2.3 225.601 0 218.299 0c-1.124 0-2.219.054-3.263.147a26.345 26.345 0 0 0-15.366 6.109c-4.408 3.769-6.938 10.182-6.938 17.593"/>
            <path d="M47.322 1.418H0v16.2h14.247v39.133h18.826V17.618h14.249z"/>
            <path d="M86.392 1.417 74.465 38.456a1.542 1.542 0 0 1-3.009-.472V1.415H53.374v55.336h34.2l18.71-55.334z"/>
        </g>
    </g>
</svg>