<svg class="cjp-btn__volume volume-small volume-on" width="24" height="24" viewBox="0 0 24 24" fill="none" xmlns="http://www.w3.org/2000/svg"><path d="M0 8a.5.5 0 0 1 .5-.5h4.327a.5.5 0 0 0 .309-.107l6.055-4.757a.5.5 0 0 1 .809.393V20.97a.5.5 0 0 1-.809.393l-6.055-4.757a.5.5 0 0 0-.309-.107H.5A.5.5 0 0 1 0 16V8z" fill="#fff"/><g class="css-1jarwcj e67y7kv0"><path d="M14 9a3.521 3.521 0 0 1 1.636 3c0 1.275-.656 2.39-1.636 3" stroke="#fff" stroke-width="1.5" stroke-linecap="round"/></g><g class="css-1jarwcj e67y7kv1"><path d="M16.5 7c1.634 1.017 2.727 2.875 2.727 5s-1.093 3.983-2.727 5" stroke="#fff" stroke-width="1.5" stroke-linecap="round"/></g><g class="css-1jarwcj e67y7kv2"><path d="M18.5 4c2.614 1.627 4.364 4.6 4.364 8 0 3.4-1.75 6.373-4.364 8" stroke="#fff" stroke-width="1.5" stroke-linecap="round"/></g><g class="volume-muted css-1m6liz e67y7kv3" id="volume_mute"><path fill-rule="evenodd" clip-rule="evenodd" d="M14.22 14.719a.75.75 0 0 0 1.061 1.06L18 13.061l2.719 2.718a.75.75 0 1 0 1.06-1.06L19.061 12l2.718-2.719a.75.75 0 0 0-1.06-1.06l-2.72 2.718-2.718-2.718a.75.75 0 0 0-1.06 1.06L16.939 12l-2.718 2.719z" fill="#fff"/></g></svg>