<svg xmlns="http://www.w3.org/2000/svg" aria-labelledby="9kvmahj-aria" role="img" viewBox="0 0 1366 387.28000000000003"><title id="9kvmahj-aria">Loading...</title><rect role="presentation" x="0" y="0" width="100%" height="100%" clip-path="url(#9kvmahj-diff)" style="fill: url(&quot;#9kvmahj-animated-diff&quot;);"/><defs><clipPath id="9kvmahj-diff"><rect rx="0" ry="0" width="140" height="24"/><rect x="0" y="44" rx="4" ry="4" width="162" height="233.28000000000003"/><rect x="0" y="287.28000000000003" rx="0" ry="0" width="162" height="20"/><rect x="0" y="317.28000000000003" rx="0" ry="0" width="97.2" height="20"/><rect x="172" y="44" rx="4" ry="4" width="162" height="233.28000000000003"/><rect x="172" y="287.28000000000003" rx="0" ry="0" width="162" height="20"/><rect x="172" y="317.28000000000003" rx="0" ry="0" width="97.2" height="20"/><rect x="344" y="44" rx="4" ry="4" width="162" height="233.28000000000003"/><rect x="344" y="287.28000000000003" rx="0" ry="0" width="162" height="20"/><rect x="344" y="317.28000000000003" rx="0" ry="0" width="97.2" height="20"/><rect x="516" y="44" rx="4" ry="4" width="162" height="233.28000000000003"/><rect x="516" y="287.28000000000003" rx="0" ry="0" width="162" height="20"/><rect x="516" y="317.28000000000003" rx="0" ry="0" width="97.2" height="20"/><rect x="688" y="44" rx="4" ry="4" width="162" height="233.28000000000003"/><rect x="688" y="287.28000000000003" rx="0" ry="0" width="162" height="20"/><rect x="688" y="317.28000000000003" rx="0" ry="0" width="97.2" height="20"/><rect x="860" y="44" rx="4" ry="4" width="162" height="233.28000000000003"/><rect x="860" y="287.28000000000003" rx="0" ry="0" width="162" height="20"/><rect x="860" y="317.28000000000003" rx="0" ry="0" width="97.2" height="20"/><rect x="1032" y="44" rx="4" ry="4" width="162" height="233.28000000000003"/><rect x="1032" y="287.28000000000003" rx="0" ry="0" width="162" height="20"/><rect x="1032" y="317.28000000000003" rx="0" ry="0" width="97.2" height="20"/><rect x="1204" y="44" rx="4" ry="4" width="162" height="233.28000000000003"/><rect x="1204" y="287.28000000000003" rx="0" ry="0" width="162" height="20"/><rect x="1204" y="317.28000000000003" rx="0" ry="0" width="97.2" height="20"/></clipPath><linearGradient id="9kvmahj-animated-diff"><stop offset="0%" stop-color="#ffffff13" stop-opacity="1"/><stop offset="50%" stop-color="#ffffff13" stop-opacity="1"/><stop offset="100%" stop-color="#ffffff13" stop-opacity="1"/></linearGradient></defs></svg>