<svg xmlns="http://www.w3.org/2000/svg" aria-labelledby="lk2022c-aria" role="img" viewBox="0 0 1366 487.14285714285717"><title id="lk2022c-aria">Loading...</title><rect role="presentation" x="0" y="0" width="100%" height="100%" clip-path="url(#lk2022c-diff)" style="fill: url(&quot;#lk2022c-animated-diff&quot;);"/><defs><clipPath id="lk2022c-diff"><rect rx="0" ry="0" width="140" height="24"/><rect x="0" y="44" rx="4" ry="4" width="186.57142857142858" height="373.14285714285717"/><rect x="0" y="427.14285714285717" rx="0" ry="0" width="186.57142857142858" height="0"/><rect x="0" y="437.14285714285717" rx="0" ry="0" width="111.94285714285715" height="0"/><rect x="196.57142857142858" y="44" rx="4" ry="4" width="186.57142857142858" height="373.14285714285717"/><rect x="196.57142857142858" y="427.14285714285717" rx="0" ry="0" width="186.57142857142858" height="0"/><rect x="196.57142857142858" y="437.14285714285717" rx="0" ry="0" width="111.94285714285715" height="0"/><rect x="393.14285714285717" y="44" rx="4" ry="4" width="186.57142857142858" height="373.14285714285717"/><rect x="393.14285714285717" y="427.14285714285717" rx="0" ry="0" width="186.57142857142858" height="0"/><rect x="393.14285714285717" y="437.14285714285717" rx="0" ry="0" width="111.94285714285715" height="0"/><rect x="589.7142857142858" y="44" rx="4" ry="4" width="186.57142857142858" height="373.14285714285717"/><rect x="589.7142857142858" y="427.14285714285717" rx="0" ry="0" width="186.57142857142858" height="0"/><rect x="589.7142857142858" y="437.14285714285717" rx="0" ry="0" width="111.94285714285715" height="0"/><rect x="786.2857142857143" y="44" rx="4" ry="4" width="186.57142857142858" height="373.14285714285717"/><rect x="786.2857142857143" y="427.14285714285717" rx="0" ry="0" width="186.57142857142858" height="0"/><rect x="786.2857142857143" y="437.14285714285717" rx="0" ry="0" width="111.94285714285715" height="0"/><rect x="982.8571428571429" y="44" rx="4" ry="4" width="186.57142857142858" height="373.14285714285717"/><rect x="982.8571428571429" y="427.14285714285717" rx="0" ry="0" width="186.57142857142858" height="0"/><rect x="982.8571428571429" y="437.14285714285717" rx="0" ry="0" width="111.94285714285715" height="0"/><rect x="1179.4285714285716" y="44" rx="4" ry="4" width="186.57142857142858" height="373.14285714285717"/><rect x="1179.4285714285716" y="427.14285714285717" rx="0" ry="0" width="186.57142857142858" height="0"/><rect x="1179.4285714285716" y="437.14285714285717" rx="0" ry="0" width="111.94285714285715" height="0"/></clipPath><linearGradient id="lk2022c-animated-diff"><stop offset="0%" stop-color="#ffffff13" stop-opacity="1"/><stop offset="50%" stop-color="#ffffff13" stop-opacity="1"/><stop offset="100%" stop-color="#ffffff13" stop-opacity="1"/></linearGradient></defs></svg>